<svg width="33" height="32" viewBox="0 0 33 32" fill="none" xmlns="http://www.w3.org/2000/svg">
<path d="M16.375 8.75H14.3969C14.2938 8.75 14.2094 8.83437 14.2094 8.9375V19.5688H14.0312L6.66875 8.83125C6.63437 8.78125 6.575 8.75 6.51562 8.75H4.4375C4.33438 8.75 4.25 8.83437 4.25 8.9375V23.4375C4.25 23.5406 4.33438 23.625 4.4375 23.625H6.39687C6.5 23.625 6.58437 23.5406 6.58437 23.4375V12.6594H6.7625L14.2063 23.5438C14.2406 23.5938 14.3 23.625 14.3625 23.625H16.375C16.4781 23.625 16.5625 23.5406 16.5625 23.4375V8.9375C16.5625 8.83437 16.4781 8.75 16.375 8.75ZM28.1875 21.6562H18.6875C18.55 21.6562 18.4375 21.7688 18.4375 21.9062V23.4062C18.4375 23.5437 18.55 23.6562 18.6875 23.6562H28.1875C28.325 23.6562 28.4375 23.5437 28.4375 23.4062V21.9062C28.4375 21.7688 28.325 21.6562 28.1875 21.6562ZM23.4312 19.6875C25.0844 19.6875 26.4062 19.15 27.375 18.0719C28.2938 17.0437 28.75 15.7031 28.75 14.0469C28.75 12.3875 28.2938 11.0313 27.375 10.0063C26.4094 8.91875 25.0875 8.375 23.4312 8.375C21.7531 8.375 20.4344 8.92187 19.4844 10.025C18.5719 11.0594 18.1281 12.3969 18.1281 14.0469C18.1281 15.6844 18.575 17.0219 19.4875 18.0562C20.4437 19.1406 21.7687 19.6875 23.4312 19.6875ZM21.1969 11.4469C21.725 10.8031 22.4563 10.4812 23.4281 10.4812C24.4125 10.4812 25.1406 10.7812 25.6469 11.3906C26.1594 12.025 26.425 12.9094 26.425 14.0437C26.425 15.1781 26.1625 16.0469 25.65 16.6656C25.1344 17.2719 24.4 17.5781 23.4281 17.5781C22.4531 17.5781 21.7094 17.2562 21.1969 16.6281C20.6875 16 20.4312 15.15 20.4312 14.0469C20.4344 12.9281 20.6875 12.0781 21.1969 11.4469Z" fill="#1A191C"/>
</svg>
