<svg width="157" height="29" viewBox="0 0 157 29" fill="none" xmlns="http://www.w3.org/2000/svg">
<path d="M1.36 13.48V-1.90735e-06H0.2V13.4C0.2 20.24 4.76 28.56 13.2 28.56H13.24C21.48 28.56 26.24 20.48 26.24 13.4V-1.90735e-06H25.08V13.48C25.08 17.84 19.84 21.56 13.2 21.56C6.6 21.56 1.36 17.8 1.36 13.48Z" fill="#004BA6"/>
<path d="M30.4375 0.0399976V7.04H50.6375L29.0375 26.52V28H57.8775V21H36.7975L58.3575 1.52V0.0399976H30.4375ZM80.6747 28L94.1947 -1.90735e-06H86.8347L73.9547 26.68L61.4347 -1.90735e-06H60.1547L73.3147 28H80.6747ZM97.9678 13.48V-1.90735e-06H96.8078V13.4C96.8078 20.24 101.368 28.56 109.808 28.56H109.848C118.088 28.56 122.848 20.48 122.848 13.4V-1.90735e-06H121.688V13.48C121.688 17.84 116.448 21.56 109.808 21.56C103.208 21.56 97.9678 17.8 97.9678 13.48ZM147.365 22.48L143.605 14.64L154.245 -1.90735e-06H146.085L128.005 24.8V-1.90735e-06H126.845V28H133.845L142.805 15.68L146.325 22.96C148.045 26.56 149.325 28.6 153.045 28.6C154.845 28.6 156.365 27.24 156.365 25.6C156.365 24.04 155.045 22.76 153.445 22.76C151.845 22.76 150.525 24.04 150.525 25.68C150.525 26.16 150.645 26.6 150.845 27C149.645 26.52 148.245 24.32 147.365 22.48Z" fill="black"/>
</svg>
